# xmcd
#
# Track frame offsets:
#	150
#	21702
#	38240
#	57417
#	71557
#	92904
#	109310
#	130275
#	147330
#	164157
#	183257
#	200205
#
# Disc length: 2862 seconds
#
# Revision: 0
# Processed by: cddbd v1.4PL0 Copyright (c) Steve Scherf et al.
# Submitted via: audiograbber 1.81.01
#
DISCID=c30b2c0c
DTITLE=RUGGERO SCANDIUZZI - APPLAUSI IN PARADISO
DYEAR=1900
DGENRE=Folk
TTITLE0=APPLAUSI IN PARADISO
TTITLE1=QUANDO IL GIORNO 
TTITLE2=ALLEGRIA
TTITLE3=PICCOLO ZINGARO
TTITLE4=TI ODIO AMORE
TTITLE5=NOTTI GITANE
TTITLE6=PER LEI
TTITLE7=CARO CUORE MIO
TTITLE8=ORA NON PIANGI PIU' 
TTITLE9=E ALLORA VAI
TTITLE10=FIDATI DI ME
TTITLE11=LIBERO CON TE
EXTD=
EXTT0=
EXTT1=
EXTT2=
EXTT3=
EXTT4=
EXTT5=
EXTT6=
EXTT7=
EXTT8=
EXTT9=
EXTT10=
EXTT11=
PLAYORDER=
